<svg xmlns="http://www.w3.org/2000/svg" viewBox="0 0 360 360"><defs><style>.cls-1{fill:#f6fcff;}.cls-2{fill:#3cbcff;}</style></defs><title>04</title><path class="cls-1" d="M1086,457h-6v6a12,12,0,0,1-12,12l12,66-18,24-18-24,12-66a12,12,0,0,1-12-12v-6h-6a48,48,0,0,0-48,48v78h30V715h84V583h30V505a48,48,0,0,0-48-48Zm0,0" transform="translate(-780 -361)"/><path class="cls-1" d="M1110,373v-6h-72a12,12,0,0,0-12,12v6a6,6,0,0,0,6,6h60a18,18,0,0,0,18-18Zm0,0" transform="translate(-780 -361)"/><path class="cls-1" d="M882,457h-6v6a12,12,0,0,1-12,12l12,66-18,24-18-24,12-66a12,12,0,0,1-12-12v-6h-6a48,48,0,0,0-48,48v78h30V715h84V583h30V505a48,48,0,0,0-48-48Zm0,0" transform="translate(-780 -361)"/><path class="cls-1" d="M894,385v-6a12,12,0,0,0-12-12H810v6a18,18,0,0,0,18,18h60a6,6,0,0,0,6-6Zm0,0" transform="translate(-780 -361)"/><path class="cls-2" d="M882,451h-6V440.14A36,36,0,0,0,894,409V395.32A11.92,11.92,0,0,0,900,385v-6a18.05,18.05,0,0,0-18-18H810a6,6,0,0,0-6,6v6a24,24,0,0,0,18,23.16V409a36,36,0,0,0,18,31.14V451h-6a54.09,54.09,0,0,0-54,54v78a6,6,0,0,0,6,6h24V715a6,6,0,0,0,6,6h84a6,6,0,0,0,6-6V691a6,6,0,0,0-12,0v18H864V607a6,6,0,0,0-12,0V709H822V499a6,6,0,0,0-12,0v78H792V505a42.06,42.06,0,0,1,42-42,18.1,18.1,0,0,0,11,16.62l-10.92,60.3a5.89,5.89,0,0,0,1.08,4.68l18,24a6,6,0,0,0,9.6,0l18-24a5.89,5.89,0,0,0,1.08-4.68L871,479.62A18.1,18.1,0,0,0,882,463a42.06,42.06,0,0,1,42,42v72H906V499a6,6,0,0,0-12,0V607a6,6,0,0,0,12,0V589h24a6,6,0,0,0,6-6V505a54.09,54.09,0,0,0-54-54Zm-54-66a12,12,0,0,1-12-12h66a6,6,0,0,1,6,6v6Zm30,170L846.36,539.5,857,481h2l10.62,58.5Zm6-86H852a6,6,0,0,1-6-6h24a6,6,0,0,1-6,6Zm-12-18v-6.54a33.6,33.6,0,0,0,12,0V451Zm6-18a24,24,0,0,1-24-24V397h48v12a24,24,0,0,1-24,24Zm0,0" transform="translate(-780 -361)"/><path class="cls-2" d="M1086,451h-6V440.14A36,36,0,0,0,1098,409V396.16A24,24,0,0,0,1116,373v-6a6,6,0,0,0-6-6h-72a18.05,18.05,0,0,0-18,18v6a11.92,11.92,0,0,0,6,10.32V409a36,36,0,0,0,18,31.14V451h-6a54.09,54.09,0,0,0-54,54v78a6,6,0,0,0,6,6h24v18a6,6,0,0,0,12,0V499a6,6,0,0,0-12,0v78H996V505a42.06,42.06,0,0,1,42-42,18.1,18.1,0,0,0,11,16.62l-10.92,60.3a5.89,5.89,0,0,0,1.08,4.68l18,24a6,6,0,0,0,9.6,0l18-24a5.89,5.89,0,0,0,1.08-4.68L1075,479.62A18.1,18.1,0,0,0,1086,463a42.06,42.06,0,0,1,42,42v72h-18V499a6,6,0,0,0-12,0V709h-30V607a6,6,0,0,0-12,0V709h-30V691a6,6,0,0,0-12,0v24a6,6,0,0,0,6,6h84a6,6,0,0,0,6-6V589h24a6,6,0,0,0,6-6V505a54.09,54.09,0,0,0-54-54Zm-54-66v-6a6,6,0,0,1,6-6h66a12,12,0,0,1-12,12Zm30,170-11.64-15.48L1061,481h2l10.62,58.5Zm6-86h-12a6,6,0,0,1-6-6h24a6,6,0,0,1-6,6Zm-12-18v-6.54a33.6,33.6,0,0,0,12,0V451Zm6-18a24,24,0,0,1-24-24V397h48v12a24,24,0,0,1-24,24Zm0,0" transform="translate(-780 -361)"/><path class="cls-2" d="M1018.24,677.24l24-24a6,6,0,0,0,0-8.48l-24-24a6,6,0,0,0-8.48,8.48L1023.52,643h-127l13.76-13.76a6,6,0,0,0-8.48-8.48l-24,24a6,6,0,0,0,0,8.48l24,24a6,6,0,0,0,8.48-8.48L896.48,655h127l-13.76,13.76a6,6,0,1,0,8.48,8.48Zm0,0" transform="translate(-780 -361)"/><path class="cls-2" d="M960,457a48,48,0,1,0-48-48,48,48,0,0,0,48,48Zm0-12a35.81,35.81,0,0,1-23.4-8.68l14.25-11.89a17.45,17.45,0,0,0,3.13,1.46V433a6,6,0,0,0,12,0v-7.11a14.2,14.2,0,0,0,1.71-.69l5,5A6,6,0,0,0,983,426a6,6,0,0,0-1.83-4.27l-5-5a15.81,15.81,0,0,0,.71-1.71H984a6,6,0,0,0,0-12h-7.11a1.87,1.87,0,0,0-.07-.22l14.25-11.88A35.93,35.93,0,0,1,960,445Zm0-72a35.82,35.82,0,0,1,23.4,8.68l-14.27,11.89a17.45,17.45,0,0,0-3.13-1.46V385a6,6,0,0,0-12,0v7.11a15.67,15.67,0,0,0-1.71.69l-5-5a6,6,0,0,0-8.49,8.48l5,5a18,18,0,0,0-.7,1.71H936a6,6,0,0,0,0,12h7.1a.49.49,0,0,0,.08.22L928.93,427.1A35.93,35.93,0,0,1,960,373Zm0,0" transform="translate(-780 -361)"/></svg>