<svg xmlns="http://www.w3.org/2000/svg" viewBox="0 0 360 318"><defs><style>.cls-1{fill:#f6fcff;}.cls-2{fill:#3cbcff;}</style></defs><title>02</title><path class="cls-1" d="M1098,465h6V417h-36v48Zm0,0" transform="translate(-780 -381)"></path><path class="cls-1" d="M1062,423a12,12,0,0,0,0,24h6V423Zm0,0" transform="translate(-780 -381)"></path><path class="cls-1" d="M1122,489h-72a12,12,0,0,0-12,12v36h96V501a12,12,0,0,0-12-12Zm0,0" transform="translate(-780 -381)"></path><path class="cls-1" d="M1038,681a12,12,0,0,0,12,12h72a12,12,0,0,0,12-12V645h-96Zm0,0" transform="translate(-780 -381)"></path><path class="cls-1" d="M1074,621h24V603h18V579h-18V561h-24v18h-18v24h18Zm0,0" transform="translate(-780 -381)"></path><rect class="cls-2" x="222" y="60" width="12" height="12"></rect><rect class="cls-2" x="222" y="36" width="12" height="12"></rect><rect class="cls-2" x="240" y="48" width="12" height="12"></rect><rect class="cls-2" x="198" y="72" width="12" height="12"></rect><rect class="cls-2" x="198" y="24" width="12" height="12"></rect><rect class="cls-2" x="198" y="48" width="12" height="12"></rect><rect class="cls-2" x="174" y="60" width="12" height="12"></rect><rect class="cls-2" x="174" y="84" width="12" height="12"></rect><rect class="cls-2" x="174" y="12" width="12" height="12"></rect><rect class="cls-2" x="174" y="36" width="12" height="12"></rect><rect class="cls-2" x="150" y="48" width="12" height="12"></rect><rect class="cls-2" x="150" y="72" width="12" height="12"></rect><rect class="cls-2" x="150" y="96" width="12" height="12"></rect><rect class="cls-2" x="150" width="12" height="12"></rect><rect class="cls-2" x="150" y="24" width="12" height="12"></rect><path class="cls-2" d="M1056,609h12v12a6,6,0,0,0,6,6h24a6,6,0,0,0,6-6V609h12a6,6,0,0,0,6-6V579a6,6,0,0,0-6-6h-12V561a6,6,0,0,0-6-6h-24a6,6,0,0,0-6,6v12h-12a6,6,0,0,0-6,6v24a6,6,0,0,0,6,6Zm6-24h12a6,6,0,0,0,6-6V567h12v12a6,6,0,0,0,6,6h12v12h-12a6,6,0,0,0-6,6v12h-12V603a6,6,0,0,0-6-6h-12Zm0,0" transform="translate(-780 -381)"></path><path class="cls-2" d="M1005.3,571.92A20.58,20.58,0,0,1,1008,582a21,21,0,0,1-21,21H975.9a20.64,20.64,0,0,1,2.1,9,21,21,0,0,1-21,21H829.26a29.78,29.78,0,0,1-16.62-5l-5.94-4a17.82,17.82,0,0,0-10-3H786a6,6,0,0,1,0-12h10.74a29.78,29.78,0,0,1,16.62,5l5.94,4a17.82,17.82,0,0,0,10,3H957a9,9,0,0,0,0-18H912a6,6,0,0,1,0-12h75a9,9,0,0,0,0-18H912a6,6,0,0,1,0-12h87a9,9,0,0,0,0-18H912a6,6,0,0,1,0-12h75a10.32,10.32,0,0,0,1.92-.18A9,9,0,0,0,996,522a8.78,8.78,0,0,0-1.74-5.34c-.36-.48-.6-.72-.84-1A9.14,9.14,0,0,0,987,513H882a6,6,0,0,1-4.68-9.78s24.72-30.72,24.84-30.9a18,18,0,0,0,0-25.44,5,5,0,0,0-2.94-1.26,4.28,4.28,0,0,0-3,1.26L839.4,503.34A29.92,29.92,0,0,1,817.32,513H786a6,6,0,0,1,0-12h31.32a18,18,0,0,0,13.38-5.94l57.06-56.64a16.22,16.22,0,0,1,11.4-4.8h.06a16.1,16.1,0,0,1,11.46,4.74,30.06,30.06,0,0,1,.24,42.18L894.48,501H987a21.16,21.16,0,0,1,14.88,6.12,16.92,16.92,0,0,1,2.1,2.52,20.8,20.8,0,0,1,1.38,22.44,20.86,20.86,0,0,1-.06,39.84Zm0,0" transform="translate(-780 -381)"></path><path class="cls-2" d="M1128,484.08V483a24,24,0,0,0-18-23.16V417a6,6,0,0,0-6-6h-36a6,6,0,0,0-6,6,18,18,0,0,0,0,36v6.84A24,24,0,0,0,1044,483v1.08A18.07,18.07,0,0,0,1032,501V681a18.05,18.05,0,0,0,18,18h72a18.05,18.05,0,0,0,18-18V501a18.07,18.07,0,0,0-12-16.92ZM1104,471a12,12,0,0,1,12,12h-12Zm-30-48h24v36h-24Zm18,48v12h-12V471Zm-36-36a6,6,0,0,1,6-6v12a6,6,0,0,1-6-6Zm12,36v12h-12a12,12,0,0,1,12-12Zm60,210a6,6,0,0,1-6,6h-72a6,6,0,0,1-6-6V651h84Zm0-42h-84V543h84Zm0-108h-84V501a6,6,0,0,1,6-6h72a6,6,0,0,1,6,6Zm0,0" transform="translate(-780 -381)"></path></svg> 