<svg xmlns="http://www.w3.org/2000/svg" viewBox="0 0 360 360"><defs><style>.cls-1{fill:#f6fcff;}.cls-2{fill:#3cbcff;}</style></defs><path class="cls-1" d="M1002,612.66l52.38-14a18,18,0,0,1,22.08,12.72,17.19,17.19,0,0,1,.6,4.62,18,18,0,0,1-13.38,17.4L1002,649.92V678h132V570H1002Zm0,0" transform="translate(-780 -360)"></path><path class="cls-1" d="M1002,702a12,12,0,0,0,12,12h108a12,12,0,0,0,12-12V678H1002Zm0,0" transform="translate(-780 -360)"></path><path class="cls-1" d="M1122,534H1014a12,12,0,0,0-12,12v24h132V546a12,12,0,0,0-12-12Zm0,0" transform="translate(-780 -360)"></path><rect class="cls-1" x="264" y="102" width="48" height="48"></rect><path class="cls-1" d="M984,462l-24,18,12,18,18-12h54V462Zm0,0" transform="translate(-780 -360)"></path><rect class="cls-1" x="6" y="222" width="36" height="84"></rect><path class="cls-1" d="M834,438V366H798v84h36Zm0,0" transform="translate(-780 -360)"></path><path class="cls-1" d="M942,564a18,18,0,0,0,18-18c0-9.94-18-30-18-30s-18,20.06-18,30a18,18,0,0,0,18,18Zm0,0" transform="translate(-780 -360)"></path><path class="cls-2" d="M966,546c0-11.65-16.27-30.37-19.54-34a6.2,6.2,0,0,0-8.93,0c-3.26,3.64-19.53,22.36-19.53,34a24,24,0,0,0,48,0Zm-36,0c0-3.82,5.63-12.75,12-20.71,6.37,8,12,17,12,20.71a12,12,0,0,1-24,0Zm0,0" transform="translate(-780 -360)"></path><path class="cls-2" d="M1122,528h-6V510a6,6,0,0,0-6-6h-12V462a6,6,0,0,0-6-6v-6a17.92,17.92,0,0,0-7.32-14.4,23.87,23.87,0,0,0-7.44-42.78L955.56,360.18A6.85,6.85,0,0,0,954,360H871.26a29.78,29.78,0,0,0-16.62,5L845.7,371a6.11,6.11,0,0,1-3.36,1H840v-6a6,6,0,0,0-6-6H798a6,6,0,0,0-6,6v84a6,6,0,0,0,6,6h36a6,6,0,0,0,6-6v-6h3.18a6.18,6.18,0,0,1,2.7.66l13.56,6.78a66,66,0,0,0,45.54,5l77.94-20.82a23.83,23.83,0,0,0,14.52-11.16q.81-1.44,1.44-2.88l52.44,14A18.13,18.13,0,0,0,1044,450v6H984a5.84,5.84,0,0,0-3.6,1.2l-24,18a6,6,0,0,0-1.38,8.1l12,18a6,6,0,0,0,5,2.7,5.58,5.58,0,0,0,3.3-1l16.5-11H1038v12h-12a6,6,0,0,0-6,6v18h-6a18.05,18.05,0,0,0-18,18v62l-9.12,2.46a24.15,24.15,0,0,0-16-14.16l-75.48-20.16-2.46-.6a66.49,66.49,0,0,0-45.54,5l-13.62,6.84a5.64,5.64,0,0,1-2.64.6H828v-6a6,6,0,0,0-6-6H786a6,6,0,0,0-6,6v84a6,6,0,0,0,6,6h36a6,6,0,0,0,6-6v-6h2.34a6.11,6.11,0,0,1,3.36,1l8.94,5.94a29.78,29.78,0,0,0,16.62,5H942a6.85,6.85,0,0,0,1.56-.18L996,657.72V702a18.05,18.05,0,0,0,18,18h108a18.05,18.05,0,0,0,18-18V546a18.05,18.05,0,0,0-18-18ZM828,444H804V372h24ZM816,660H792V588h24Zm184.5-250.44a22.68,22.68,0,0,0-.66-3.36,24,24,0,0,0-29.34-17L928.44,400.5a6,6,0,0,0-4.43,7.41,6,6,0,0,0,7.55,4.17l42-11.22A12,12,0,0,1,979.8,424l-75.24,20.16-2.46.6a54,54,0,0,1-37.26-4.08l-13.62-6.78a18,18,0,0,0-8-1.92H840V384h2.34a18,18,0,0,0,10-3l8.94-6a17.82,17.82,0,0,1,10-3h82l121,32.46a12,12,0,0,1,8.88,11.58,10.56,10.56,0,0,1-.42,3.06,11.57,11.57,0,0,1-5.58,7.26,11.83,11.83,0,0,1-9.12,1.2ZM1080,450v6h-24v-6a6,6,0,0,1,6-6h12a6,6,0,0,1,6,6Zm-30,18h36v36h-36Zm-60,12a5.8,5.8,0,0,0-3.3,1l-13,8.64-5.52-8.28L986,468h52v12Zm42,36h72v12h-72ZM941.22,660h-82a17.93,17.93,0,0,1-10-3l-8.82-5.88A17.71,17.71,0,0,0,830.34,648H828V600h3.18a17.83,17.83,0,0,0,8-1.92l13.56-6.78a54.33,54.33,0,0,1,37.32-4.08L967.8,608a12,12,0,0,1,8.82,10.38,11.25,11.25,0,0,1-.36,4.32,12,12,0,0,1-11.58,8.88,10.26,10.26,0,0,1-3.12-.42l-42-11.28a6,6,0,0,0-3.12,11.64l42,11.28a26.27,26.27,0,0,0,6.24.78,24,24,0,0,0,23.16-17.7,19.92,19.92,0,0,0,.6-3.42l67.5-18a11.79,11.79,0,0,1,9.12,1.2,11.57,11.57,0,0,1,5.58,7.26,10.56,10.56,0,0,1,.42,3.06,11.94,11.94,0,0,1-8.94,11.58ZM1128,702a6,6,0,0,1-6,6H1014a6,6,0,0,1-6-6V684h120Zm0-30H1008V654.54l57.18-15.36a24,24,0,1,0-12.36-46.38l-44.82,12V576h120Zm0-108H1008V546a6,6,0,0,1,6-6h108a6,6,0,0,1,6,6Zm0,0" transform="translate(-780 -360)"></path></svg>