<svg xmlns="http://www.w3.org/2000/svg" xmlns:xlink="http://www.w3.org/1999/xlink" preserveAspectRatio="xMidYMid" viewBox="0 0 124 124" style="fill: #edfdff;">
    <path d="M96.231,14.812 C100.338,13.471 103.106,15.478 105.571,17.844 C108.232,20.399 110.504,23.275 109.250,27.733 C108.358,27.246 107.684,26.855 106.989,26.502 C103.874,24.919 100.138,25.635 97.900,28.232 C95.623,30.873 95.425,34.269 97.338,37.226 C98.241,38.622 99.168,40.012 99.937,41.482 C100.804,43.143 102.004,44.145 103.913,43.729 C105.883,43.299 106.804,41.915 106.815,39.914 C106.817,39.603 106.815,39.291 106.815,38.956 C110.066,39.568 111.696,43.159 110.308,46.474 C110.160,46.474 109.929,46.542 109.856,46.464 C108.368,44.869 106.702,43.885 104.596,45.259 C102.598,46.561 102.853,48.408 103.514,50.367 C103.937,51.622 104.185,52.942 104.440,54.246 C105.121,57.725 107.997,60.458 111.180,60.602 C114.840,60.768 117.958,58.507 119.008,54.924 C119.190,54.304 119.366,53.681 119.604,52.854 C123.851,54.979 123.944,58.811 123.994,62.522 C124.041,66.004 123.187,69.192 119.576,71.251 C118.784,68.189 117.995,65.537 115.031,64.219 C110.735,62.309 105.972,64.299 104.641,68.804 C104.007,70.950 103.323,73.136 103.151,75.342 C103.065,76.438 103.797,78.061 104.684,78.641 C105.577,79.224 107.146,78.965 108.370,78.768 C108.981,78.669 109.482,77.886 110.045,77.401 C111.830,80.286 110.391,83.946 106.924,85.200 C106.876,84.534 107.055,83.750 106.743,83.336 C105.902,82.220 104.973,80.637 103.850,80.420 C102.775,80.212 101.159,81.239 100.244,82.176 C99.112,83.333 98.504,84.988 97.588,86.375 C95.380,89.718 95.541,93.249 98.085,95.974 C100.564,98.630 104.316,99.074 107.661,97.103 C108.067,96.863 108.457,96.596 108.866,96.334 C110.347,99.141 109.464,102.123 106.285,105.501 C102.884,109.115 99.448,110.362 96.371,108.959 C96.735,108.328 97.113,107.722 97.443,107.090 C99.073,103.964 98.430,100.283 95.861,97.965 C93.214,95.576 89.766,95.375 86.681,97.392 C85.360,98.257 84.044,99.150 82.643,99.869 C80.896,100.765 79.792,101.985 80.320,104.019 C80.856,106.082 82.329,106.970 84.456,106.782 C84.672,106.763 84.901,106.890 85.125,106.950 C84.171,110.253 80.500,111.788 77.378,110.107 C77.819,109.600 78.532,109.156 78.599,108.630 C78.774,107.255 79.151,105.545 78.528,104.538 C77.991,103.670 76.171,103.196 74.948,103.248 C73.157,103.325 71.405,104.086 69.614,104.449 C66.155,105.149 63.692,107.890 63.497,111.367 C63.312,114.653 65.451,117.818 68.602,118.878 C69.371,119.137 70.168,119.311 71.184,119.588 C69.068,123.662 65.434,124.025 61.750,123.998 C58.232,123.972 54.839,123.413 52.807,119.579 C53.829,119.311 54.546,119.153 55.243,118.934 C58.532,117.900 60.758,114.693 60.548,111.319 C60.331,107.853 57.870,105.135 54.379,104.440 C52.831,104.132 51.255,103.862 49.775,103.339 C47.842,102.656 46.287,102.979 45.222,104.710 C44.144,106.464 44.650,108.053 46.102,109.405 C46.276,109.566 46.405,109.775 46.556,109.963 C43.924,111.964 39.800,110.322 38.946,106.899 C39.676,106.832 40.598,107.023 41.073,106.648 C42.110,105.831 43.426,104.834 43.667,103.705 C43.875,102.731 43.034,101.135 42.162,100.412 C40.452,98.993 38.425,97.942 36.477,96.829 C33.880,95.345 30.477,95.862 28.144,97.999 C25.719,100.222 25.008,103.698 26.408,106.678 C26.754,107.416 27.212,108.101 27.617,108.807 C25.319,110.279 22.650,109.679 19.366,107.002 C15.323,103.705 13.667,99.838 14.983,96.358 C15.692,96.748 16.366,97.142 17.061,97.496 C20.098,99.044 23.707,98.410 25.981,95.943 C28.405,93.314 28.666,89.803 26.698,86.764 C25.794,85.368 24.864,83.979 24.098,82.508 C23.231,80.843 22.034,79.844 20.123,80.269 C18.159,80.706 17.228,82.081 17.229,84.087 C17.229,84.399 17.229,84.711 17.229,85.047 C13.950,84.406 12.337,80.818 13.738,77.538 C13.897,77.539 14.129,77.471 14.202,77.550 C15.617,79.062 17.215,80.056 19.258,78.855 C21.426,77.581 21.219,75.670 20.511,73.602 C20.057,72.272 19.824,70.861 19.541,69.477 C18.811,65.906 16.581,63.695 13.477,63.507 C9.467,63.264 6.105,65.280 4.955,68.627 C4.717,69.320 4.521,70.028 4.199,71.077 C0.951,68.633 -0.073,65.491 0.010,61.878 C0.093,58.328 0.591,54.926 4.402,52.752 C4.676,53.709 4.863,54.390 5.068,55.067 C6.137,58.603 9.479,60.858 13.312,60.636 C16.380,60.459 18.829,58.009 19.552,54.453 C19.866,52.906 20.137,51.331 20.658,49.849 C21.326,47.950 21.125,46.353 19.405,45.244 C17.561,44.056 15.924,44.613 14.543,46.194 C14.396,46.361 14.149,46.441 13.945,46.563 C12.222,43.681 13.661,40.054 17.123,38.798 C17.159,39.386 16.993,40.072 17.263,40.430 C18.147,41.605 19.027,43.254 20.219,43.577 C21.210,43.847 22.906,42.758 23.807,41.812 C24.983,40.577 25.643,38.863 26.596,37.401 C28.663,34.231 28.438,30.657 25.950,28.009 C23.530,25.433 19.793,24.933 16.577,26.768 C16.097,27.042 15.647,27.368 15.168,27.679 C13.676,24.804 14.637,21.718 17.935,18.307 C21.314,14.812 24.663,13.643 27.671,15.046 C27.306,15.676 26.925,16.283 26.594,16.916 C24.961,20.041 25.609,23.720 28.186,26.036 C30.835,28.417 34.294,28.613 37.364,26.597 C38.684,25.730 40.003,24.841 41.405,24.125 C43.158,23.229 44.240,22.004 43.725,19.970 C43.231,18.022 41.842,17.119 39.829,17.181 C39.528,17.191 39.225,17.147 38.889,17.126 C39.875,13.743 43.546,12.212 46.652,13.884 C46.169,14.458 45.385,14.969 45.306,15.571 C45.136,16.873 44.892,18.495 45.503,19.469 C46.036,20.318 47.739,20.913 48.854,20.816 C51.065,20.622 53.243,19.927 55.407,19.340 C58.281,18.560 60.497,15.502 60.560,12.375 C60.625,9.188 58.489,6.146 55.433,5.117 C54.665,4.858 53.868,4.683 52.835,4.402 C55.052,0.248 58.785,-0.073 62.547,0.009 C65.960,0.082 69.315,0.604 71.182,4.435 C70.210,4.689 69.493,4.845 68.795,5.064 C65.500,6.099 63.286,9.293 63.496,12.679 C63.712,16.151 66.165,18.858 69.663,19.554 C71.211,19.862 72.786,20.137 74.266,20.661 C76.201,21.347 77.761,21.010 78.823,19.289 C79.901,17.541 79.397,15.945 77.942,14.594 C77.769,14.433 77.638,14.226 77.486,14.040 C80.104,12.030 84.252,13.681 85.094,17.104 C84.364,17.167 83.442,16.971 82.969,17.344 C81.933,18.161 80.620,19.159 80.376,20.289 C80.167,21.260 81.004,22.854 81.874,23.576 C83.584,24.995 85.610,26.050 87.557,27.163 C90.160,28.651 93.566,28.138 95.891,26.004 C98.252,23.839 99.004,20.489 97.735,17.552 C97.379,16.728 96.873,15.969 96.231,14.812 ZM57.886,29.456 C54.035,29.481 50.992,32.703 50.966,36.785 C50.937,41.288 54.525,45.185 58.745,45.233 C62.647,45.278 65.858,41.887 65.824,37.757 C65.788,33.291 62.094,29.429 57.886,29.456 ZM80.166,76.425 C80.120,76.050 80.104,75.375 79.949,74.734 C78.643,69.320 72.870,66.154 68.656,69.885 C66.125,72.126 65.777,77.014 68.071,80.443 C69.874,83.140 72.905,84.442 75.550,83.657 C78.373,82.820 80.192,80.085 80.166,76.425 ZM91.520,42.003 C91.466,38.258 87.935,34.354 84.611,34.365 C82.374,34.372 80.953,35.970 80.941,38.489 C80.924,42.320 84.600,46.404 87.961,46.288 C90.110,46.214 91.556,44.472 91.520,42.003 ZM56.586,98.582 C60.079,98.616 61.827,96.077 60.471,92.939 C59.306,90.245 55.748,87.998 52.862,88.135 C49.716,88.284 48.115,90.805 49.316,93.720 C50.442,96.454 53.581,98.553 56.586,98.582 ZM60.836,74.594 C60.805,72.765 58.931,70.883 57.151,70.893 C55.245,70.903 53.392,72.840 53.403,74.809 C53.415,76.789 55.068,78.426 57.050,78.418 C59.081,78.409 60.870,76.602 60.836,74.594 ZM21.634,54.844 C21.571,57.710 23.231,59.765 24.951,59.738 C26.748,59.709 27.596,58.589 27.704,56.882 C27.840,54.752 26.092,52.468 24.320,52.878 C23.153,53.148 22.212,54.394 21.634,54.844 ZM43.225,77.056 C42.901,74.495 41.989,73.274 40.154,73.250 C38.427,73.228 37.357,74.335 37.351,76.058 C37.345,77.855 38.380,79.253 40.217,78.975 C41.387,78.798 42.403,77.612 43.225,77.056 ZM93.477,52.307 C93.556,54.929 95.069,56.820 96.506,56.769 C98.154,56.711 98.586,55.322 98.163,54.323 C97.577,52.940 96.342,51.832 95.384,50.606 C94.627,51.281 93.870,51.956 93.477,52.307 ZM46.281,66.995 C47.325,65.623 48.404,64.822 48.349,64.110 C48.290,63.348 47.198,62.155 46.489,62.104 C45.825,62.056 44.609,63.184 44.491,63.930 C44.378,64.642 45.367,65.528 46.281,66.995 ZM87.349,89.630 C86.056,88.638 85.263,87.565 84.536,87.607 C83.844,87.647 82.644,88.919 82.713,89.530 C82.797,90.274 83.890,91.249 84.710,91.445 C85.263,91.578 86.097,90.539 87.349,89.630 ZM39.538,33.322 C38.868,34.437 38.198,35.113 38.336,35.404 C38.746,36.265 39.475,36.975 40.080,37.744 C40.425,37.268 41.129,36.711 41.044,36.332 C40.852,35.477 40.270,34.709 39.538,33.322 Z"></path>
</svg> 