<svg xmlns="http://www.w3.org/2000/svg" viewBox="0 0 145 26.28" width="255" height="46">
<defs>
    <style>.cls-1{fill:#3cbcff;}.cls-2{fill:#fff;}</style>
</defs>
<title>Medical_Equipment_2</title>
<circle class="cls-1" cx="13.14" cy="13.14" r="13.14"/>
<path class="cls-2" d="M16.45,9.8l-.36,1.59h4.17L20,13.14H15.71l-.27,1.18c-.15.55.25.46.25.46H20l-.39,1.85h-.49a1.4,1.4,0,0,0-1.05-.83,1.86,1.86,0,0,0-1.81.83H14.08a1,1,0,0,1-.87-1l.85-4.36-3.27,5.39-1.61-.05L7.94,10.31A1.8,1.8,0,0,0,6.89,9L5.3,8.21a.67.67,0,0,1-.45-.61H7.74A2.05,2.05,0,0,1,9.55,8.73l1,5.11,3-4.86a2.52,2.52,0,0,1,2-1.38h5.94l-.39,1.8H17C16.48,9.37,16.45,9.8,16.45,9.8Z"/><path class="cls-2" d="M7.33,10.83l.42,2L7,16.13a1.47,1.47,0,0,0-1.6-.22l1.07-5.08Z"/><circle class="cls-2" cx="17.63" cy="17.51" r="1.17"/><circle class="cls-2" cx="5.97" cy="17.51" r="1.17"/><path class="cls-1" d="M36.51,14.28l.18-1.72h-.07L36.09,14l-1.85,3.23H33.7l-2-3.24-.54-1.38h-.07l.25,1.71v4.51H29.78V10.11h1.55l2.32,4,.41,1h0l.38-1,2.19-3.94h1.54v8.67h-1.7Z"/><path class="cls-1" d="M39.69,10.11h5.15v1.51H41.39v2h3.14v1.51H41.39v2.12H44.9v1.51H39.69Z"/><path class="cls-1" d="M46.16,10.11l.59-.07.67,0,.68,0h.59a5.27,5.27,0,0,1,2,.33,3.23,3.23,0,0,1,1.32.9,3.66,3.66,0,0,1,.75,1.39A6.49,6.49,0,0,1,53,14.37a6.39,6.39,0,0,1-.22,1.7A4,4,0,0,1,52,17.52a3.74,3.74,0,0,1-1.37,1,5,5,0,0,1-2.1.39l-.53,0-.68,0-.68,0-.48-.05Zm2.66,1.38-.55,0-.41,0v5.82H48l.25,0h.45a2.52,2.52,0,0,0,1.19-.26,2.06,2.06,0,0,0,.76-.67,3,3,0,0,0,.39-1,5.93,5.93,0,0,0,.11-1.13,5,5,0,0,0-.1-1,2.63,2.63,0,0,0-.37-.93,1.92,1.92,0,0,0-.72-.66A2.28,2.28,0,0,0,48.82,11.49Z"/><path class="cls-1" d="M54.35,10.11h1.7v8.67h-1.7Z"/><path class="cls-1" d="M63.58,18.43a2.67,2.67,0,0,1-1,.4,6.56,6.56,0,0,1-1.26.12,4.55,4.55,0,0,1-1.48-.24,3.22,3.22,0,0,1-1.23-.78,3.86,3.86,0,0,1-.85-1.4,6.1,6.1,0,0,1-.31-2.09,5.52,5.52,0,0,1,.35-2.13,3.71,3.71,0,0,1,.92-1.39A3.45,3.45,0,0,1,60,10.16a4.55,4.55,0,0,1,1.39-.23,7.3,7.3,0,0,1,1.26.1,5,5,0,0,1,.85.24l-.34,1.44a2.11,2.11,0,0,0-.67-.2,6.41,6.41,0,0,0-1-.06,2,2,0,0,0-1.65.73,3.42,3.42,0,0,0-.63,2.27,4.63,4.63,0,0,0,.15,1.22,2.7,2.7,0,0,0,.45,1,2.16,2.16,0,0,0,.76.61,2.44,2.44,0,0,0,1,.21,3.26,3.26,0,0,0,1-.11,3.14,3.14,0,0,0,.67-.28Z"/><path class="cls-1" d="M68.36,16.86H65.7L65,18.78H63.35L66.47,10h1.25l3.12,8.74H69.06ZM66.13,15.5H68l-.64-1.94-.26-1.36H67l-.26,1.38Z"/><path class="cls-1" d="M77.08,18.78H71.59V10.11h1.69v7.16h3.8Z"/><path class="cls-1" d="M80.89,10.11h4.72V11H81.92v2.84H85.3v.92H81.92v3.08h3.75v.92H80.89Z"/><path class="cls-1" d="M87.17,14.44a5.25,5.25,0,0,1,.92-3.32A3.11,3.11,0,0,1,90.7,10a3.7,3.7,0,0,1,1.59.32,3,3,0,0,1,1.11.91,4,4,0,0,1,.65,1.41,7.5,7.5,0,0,1,.21,1.84,5.26,5.26,0,0,1-.92,3.33,3.2,3.2,0,0,1-2.64,1.16,3.59,3.59,0,0,1-1.56-.32A3.16,3.16,0,0,1,88,17.7a4.12,4.12,0,0,1-.65-1.42A7.44,7.44,0,0,1,87.17,14.44Zm1.09,0a6.06,6.06,0,0,0,.15,1.37,3.55,3.55,0,0,0,.44,1.13,2.19,2.19,0,0,0,.76.78A2,2,0,0,0,90.7,18a2.13,2.13,0,0,0,1.81-.87,4.47,4.47,0,0,0,.66-2.7A6.57,6.57,0,0,0,93,13.09,3.67,3.67,0,0,0,92.58,12a2.3,2.3,0,0,0-.77-.78,2,2,0,0,0-1.11-.3,2.13,2.13,0,0,0-1.79.88A4.53,4.53,0,0,0,88.26,14.44ZM95.2,20.9a3.15,3.15,0,0,1-.58.12,5.44,5.44,0,0,1-.57,0,6.06,6.06,0,0,1-1.21-.13c-.39-.09-.77-.18-1.14-.29l-1.06-.28a3.74,3.74,0,0,0-1-.13,2.12,2.12,0,0,0-.57.07v-.9a1.91,1.91,0,0,1,.33-.06,1.87,1.87,0,0,1,.34,0,4,4,0,0,1,1,.13c.34.09.69.18,1,.29s.72.19,1.09.28a4.94,4.94,0,0,0,1.17.13A4.83,4.83,0,0,0,95.2,20Z"/><path class="cls-1" d="M101,10.11h1v5.78a4.17,4.17,0,0,1-.2,1.35,2.31,2.31,0,0,1-1.5,1.48,3.89,3.89,0,0,1-1.17.17,3.4,3.4,0,0,1-2.32-.69A2.68,2.68,0,0,1,96,16.09v-6h1v5.5a3.93,3.93,0,0,0,.13,1.11,1.65,1.65,0,0,0,.39.73,1.49,1.49,0,0,0,.65.4,3.07,3.07,0,0,0,.91.13,1.72,1.72,0,0,0,1.44-.56,3,3,0,0,0,.43-1.81Z"/><path class="cls-1" d="M104.32,10.11h1v8.67h-1Z"/><path class="cls-1" d="M107.69,10.19a7.56,7.56,0,0,1,1-.15l1.08,0a5.67,5.67,0,0,1,1.15.11,3.07,3.07,0,0,1,1.08.41,2.28,2.28,0,0,1,.78.82,2.48,2.48,0,0,1,.31,1.32,2.86,2.86,0,0,1-.29,1.34,2.6,2.6,0,0,1-.75.89,3.32,3.32,0,0,1-1.08.49,5.77,5.77,0,0,1-1.25.14h-.5l-.31,0-.21,0v3.3h-1Zm2.12.71h-.62a2.47,2.47,0,0,0-.47.06v3.6l.2,0h.77a4.58,4.58,0,0,0,.83-.08,2.26,2.26,0,0,0,.75-.29,1.5,1.5,0,0,0,.54-.6,2,2,0,0,0,.21-1,1.7,1.7,0,0,0-.2-.85,1.44,1.44,0,0,0-.5-.54,1.92,1.92,0,0,0-.72-.29A3.48,3.48,0,0,0,109.81,10.9Z"/><path class="cls-1" d="M121.28,13l.13-1.3h-.06l-.47,1.19-2.26,3.91h-.31l-2.39-3.93-.45-1.17h-.06l.17,1.28v5.84h-1V10.11h.77l2.71,4.43.41,1h0l.39-1,2.59-4.41h.8v8.67h-1Z"/><path class="cls-1" d="M124.42,10.11h4.72V11h-3.69v2.84h3.38v.92h-3.38v3.08h3.75v.92h-4.78Z"/><path class="cls-1" d="M132.62,13.11,132,11.85h0l.13,1.26v5.67h-1V10h.55l4.15,5.79L136.4,17h.06l-.13-1.19V10.11h1v8.81h-.54Z"/><path class="cls-1" d="M145,11h-2.7v7.76h-1V11h-2.7v-.91H145Z"/></svg>